<svg xmlns="http://www.w3.org/2000/svg" viewBox="0 0 1200 900" role="img" aria-labelledby="title desc">
  <title id="title">大连旅行照片占位</title>
  <desc id="desc">海风、灯塔、落日和拍立得质感的占位插画。</desc>
  <defs>
    <linearGradient id="sky" x1="0" x2="0" y1="0" y2="1">
      <stop offset="0" stop-color="#8fc9d5"/>
      <stop offset="0.58" stop-color="#f5cba2"/>
      <stop offset="1" stop-color="#f4ebe0"/>
    </linearGradient>
    <linearGradient id="sea" x1="0" x2="1" y1="0" y2="1">
      <stop offset="0" stop-color="#4f9caf"/>
      <stop offset="1" stop-color="#a7d5d2"/>
    </linearGradient>
  </defs>
  <rect width="1200" height="900" fill="url(#sky)"/>
  <circle cx="888" cy="260" r="92" fill="#f2b66f" opacity=".86"/>
  <path d="M0 562 C205 505 344 612 528 564 C727 512 868 533 1200 490 L1200 900 L0 900Z" fill="url(#sea)"/>
  <path d="M0 648 C186 600 340 700 520 650 C718 596 922 632 1200 574" fill="none" stroke="#fff8ec" stroke-width="20" stroke-linecap="round" opacity=".7"/>
  <path d="M0 738 C175 690 330 790 518 742 C694 695 900 713 1200 669" fill="none" stroke="#fff8ec" stroke-width="14" stroke-linecap="round" opacity=".55"/>
  <path d="M168 748 L352 466 L514 748Z" fill="#e7d2bc"/>
  <path d="M216 748 L353 548 L468 748Z" fill="#d9bea4"/>
  <rect x="268" y="326" width="72" height="230" rx="10" fill="#fff7ef"/>
  <rect x="258" y="300" width="92" height="36" rx="8" fill="#d86159"/>
  <rect x="286" y="364" width="36" height="44" rx="18" fill="#5f95a3"/>
  <path d="M252 556 H356 L390 748 H218Z" fill="#c86158"/>
  <path d="M780 656 C844 600 933 600 998 656" fill="none" stroke="#fff7ef" stroke-width="16" stroke-linecap="round"/>
  <text x="64" y="104" fill="#fffaf2" font-family="Arial, sans-serif" font-size="54" font-weight="800">Dalian</text>
  <text x="66" y="162" fill="#fffaf2" font-family="Arial, sans-serif" font-size="30" font-weight="700" opacity=".9">photo placeholder</text>
</svg>
