<svg xmlns="http://www.w3.org/2000/svg" viewBox="0 0 1200 900" role="img" aria-labelledby="title desc">
  <title id="title">济州岛旅行照片占位</title>
  <desc id="desc">橘子树、海岸线和岛屿火山的占位插画。</desc>
  <defs>
    <linearGradient id="sky" x1="0" x2="0" y1="0" y2="1">
      <stop offset="0" stop-color="#98cfd0"/>
      <stop offset=".62" stop-color="#f5dfb1"/>
      <stop offset="1" stop-color="#fff8ee"/>
    </linearGradient>
    <linearGradient id="water" x1="0" x2="1" y1="0" y2="1">
      <stop offset="0" stop-color="#5aa6b2"/>
      <stop offset="1" stop-color="#b8ddcc"/>
    </linearGradient>
  </defs>
  <rect width="1200" height="900" fill="url(#sky)"/>
  <path d="M394 558 C494 356 664 330 806 558Z" fill="#8d8f79"/>
  <path d="M520 558 C585 432 676 410 760 558Z" fill="#73765f"/>
  <path d="M0 604 C208 544 408 604 600 590 C820 574 946 530 1200 566 L1200 900 L0 900Z" fill="url(#water)"/>
  <path d="M0 690 C160 642 318 742 504 694 C724 636 924 692 1200 626" fill="none" stroke="#fffaf1" stroke-width="18" stroke-linecap="round" opacity=".62"/>
  <path d="M0 774 C188 718 356 814 552 762 C758 706 930 750 1200 696" fill="none" stroke="#fffaf1" stroke-width="13" stroke-linecap="round" opacity=".52"/>
  <g transform="translate(142 456)">
    <path d="M86 288 C74 205 92 114 144 54" fill="none" stroke="#7c6b48" stroke-width="22" stroke-linecap="round"/>
    <path d="M42 92 C92 16 164 10 214 78 C178 94 94 128 42 92Z" fill="#7abf91"/>
    <path d="M112 80 C174 2 252 28 270 112 C214 112 148 122 112 80Z" fill="#8bc69c"/>
    <path d="M54 156 C118 112 194 134 228 204 C158 210 90 204 54 156Z" fill="#68ad81"/>
    <g fill="#f19a45">
      <circle cx="93" cy="121" r="20"/>
      <circle cx="178" cy="92" r="18"/>
      <circle cx="190" cy="178" r="19"/>
    </g>
  </g>
  <circle cx="992" cy="250" r="80" fill="#f0b96f" opacity=".82"/>
  <text x="64" y="104" fill="#fffaf2" font-family="Arial, sans-serif" font-size="54" font-weight="800">Jeju</text>
  <text x="66" y="162" fill="#fffaf2" font-family="Arial, sans-serif" font-size="30" font-weight="700" opacity=".9">photo placeholder</text>
</svg>
